<svg width="72" height="72" fill="none" xmlns="http://www.w3.org/2000/svg"><path d="M70.594 2.816H1.406C.63 2.816 0 3.446 0 4.223v63.553c0 .777.63 1.407 1.406 1.407h13.64a1.406 1.406 0 0 0 0-2.813H2.814V15.747c.046.004.093.007.14.007h66.235V66.37h-2.502v-6.076a6.346 6.346 0 0 0-4.357-6.033l-4.962-1.645a8.833 8.833 0 0 0 1.456-2.402h4.179c.777 0 1.406-.63 1.406-1.406v-3.966c0-7.592-6.176-13.769-13.768-13.769-7.592 0-13.768 6.177-13.768 13.769v3.966c0 .776.63 1.406 1.406 1.406h4.178c.357.88.851 1.69 1.457 2.402l-4.962 1.645a6.346 6.346 0 0 0-4.357 6.033v6.076h-6.541a1.406 1.406 0 0 0 0 2.813H70.594c.776 0 1.406-.63 1.406-1.407V4.223c0-.777-.63-1.407-1.406-1.407Zm-8.998 44.586h-2.143c.01-.164.015-.328.015-.494v-1.936l-.001-.038h2.129v2.468Zm-21.912 0v-2.468h2.129l-.001.038v1.936c0 .166.006.33.015.494h-2.143Zm2.603-5.281h-2.26c1.212-4.73 5.51-8.236 10.613-8.236 5.102 0 9.4 3.507 10.614 8.236h-2.261c-1.19-3.472-4.483-5.977-8.353-5.977s-7.164 2.505-8.353 5.977Zm8.353 4.617c-.777 0-1.406.63-1.406 1.407v1.453c0 .776.63 1.406 1.406 1.406h4.4a6.06 6.06 0 0 1-1.067.91c-.093.044-.18.1-.26.163-.9.537-1.951.847-3.073.847a5.977 5.977 0 0 1-3.072-.846 1.421 1.421 0 0 0-.261-.165 6.014 6.014 0 0 1-2.683-5.005v-1.936a6.022 6.022 0 0 1 6.016-6.015 6.022 6.022 0 0 1 6.015 6.015v1.936c0 .44-.049.87-.139 1.283h-4.47v-.047c0-.776-.63-1.406-1.406-1.406ZM63.873 66.37H37.406v-6.076c0-1.53.977-2.882 2.43-3.364l6.687-2.216a8.771 8.771 0 0 0 4.117 1.022c1.486 0 2.887-.37 4.117-1.022l6.687 2.216a3.538 3.538 0 0 1 2.43 3.364v6.076Zm5.315-53.429H2.954c-.048 0-.095.003-.142.008v-7.32h66.376v7.312Z" fill="#086CF9"/><path d="M22.718 66.783a1.409 1.409 0 0 0-2.4.994 1.411 1.411 0 0 0 1.406 1.407c.37 0 .732-.15.994-.412s.412-.625.412-.995-.15-.732-.412-.994ZM63 7.879H31.228a1.406 1.406 0 0 0 0 2.812H63a1.406 1.406 0 0 0 0-2.812ZM15.62 8.292a1.416 1.416 0 0 0-.995-.412c-.37 0-.733.15-.994.412a1.416 1.416 0 0 0-.412.994c0 .37.15.733.412.994.261.262.624.412.994.412s.733-.15.994-.412c.262-.261.412-.624.412-.994s-.15-.733-.412-.994ZM9.994 8.292A1.416 1.416 0 0 0 9 7.88c-.37 0-.733.15-.994.412a1.416 1.416 0 0 0-.412.994c0 .37.15.733.412.994.261.262.624.412.994.412s.733-.15.994-.412c.262-.261.412-.624.412-.994s-.15-.733-.412-.994ZM21.244 8.292a1.416 1.416 0 0 0-.994-.412c-.37 0-.733.15-.994.412a1.416 1.416 0 0 0-.412.994c0 .37.15.733.412.994.261.262.624.412.994.412s.733-.15.994-.412c.262-.261.412-.624.412-.994s-.15-.733-.412-.994ZM30.143 19.41H13.307a5.72 5.72 0 0 0-5.713 5.714v11.635a5.72 5.72 0 0 0 5.713 5.714h16.836a5.72 5.72 0 0 0 5.713-5.714V25.124a5.72 5.72 0 0 0-5.713-5.714Zm0 20.25H13.307a2.905 2.905 0 0 1-2.9-2.901V25.124c0-1.6 1.3-2.901 2.9-2.901h16.836c1.6 0 2.9 1.301 2.9 2.9V36.76c0 1.6-1.3 2.901-2.9 2.901Z" fill="#086CF9"/><path d="m25.928 28.579-5.376-3.446a2.807 2.807 0 0 0-4.322 2.364v6.89a2.806 2.806 0 0 0 4.322 2.364l5.376-3.445a2.795 2.795 0 0 0 1.292-2.364c0-.961-.483-1.845-1.292-2.363Zm-6.885 5.798v-6.87l5.36 3.435-5.36 3.435ZM19.335 53.16H9a1.406 1.406 0 0 0 0 2.813h10.335a1.406 1.406 0 0 0 0-2.813ZM29.646 53.16H25.75a1.406 1.406 0 0 0 0 2.813h3.896a1.406 1.406 0 0 0 0-2.813ZM23.82 46.41H9a1.406 1.406 0 0 0 0 2.813h14.82a1.406 1.406 0 0 0 0-2.813ZM30.691 46.822a1.416 1.416 0 0 0-.994-.412c-.371 0-.733.15-.994.412a1.416 1.416 0 0 0-.412.994c0 .37.15.733.412.994.261.262.623.413.994.413.37 0 .733-.15.994-.413.262-.26.412-.624.412-.994s-.15-.732-.412-.994ZM29.644 59.91H9a1.406 1.406 0 0 0 0 2.813h20.644a1.406 1.406 0 0 0 0-2.813Z" fill="#086CF9"/></svg>