<svg width="20" height="20" viewBox="0 0 20 20" fill="none" xmlns="http://www.w3.org/2000/svg">
<path d="M14.6359 0.837067L12.3215 0.833252C9.72134 0.833252 8.04102 2.60416 8.04102 5.34511V7.42538H5.71401C5.51293 7.42538 5.3501 7.59284 5.3501 7.7994V10.8135C5.3501 11.02 5.51312 11.1873 5.71401 11.1873H8.04102V18.7928C8.04102 18.9993 8.20386 19.1666 8.40494 19.1666H11.441C11.6421 19.1666 11.8049 18.9991 11.8049 18.7928V11.1873H14.5258C14.7268 11.1873 14.8897 11.02 14.8897 10.8135L14.8908 7.7994C14.8908 7.70022 14.8524 7.60523 14.7842 7.53505C14.7161 7.46486 14.6232 7.42538 14.5267 7.42538H11.8049V5.66191C11.8049 4.81431 12.0016 4.38403 13.0764 4.38403L14.6355 4.38346C14.8364 4.38346 14.9992 4.216 14.9992 4.00963V1.21089C14.9992 1.00472 14.8366 0.837448 14.6359 0.837067Z" fill="#086CF9"/>
</svg>
