<svg width="20" height="20" viewBox="0 0 20 20" fill="none" xmlns="http://www.w3.org/2000/svg">
<path fill-rule="evenodd" clip-rule="evenodd" d="M1.66675 9.99984C1.66675 7.3589 1.66675 6.03843 2.11082 5.00143C2.6672 3.70216 3.7024 2.66695 5.00167 2.11057C6.03867 1.6665 7.35914 1.6665 10.0001 1.6665C12.641 1.6665 13.9615 1.6665 14.9985 2.11057C16.2978 2.66695 17.333 3.70216 17.8893 5.00143C18.3334 6.03843 18.3334 7.3589 18.3334 9.99984C18.3334 12.6408 18.3334 13.9613 17.8893 14.9982C17.333 16.2975 16.2978 17.3327 14.9985 17.8891C13.9615 18.3332 12.641 18.3332 10.0001 18.3332C7.35914 18.3332 6.03867 18.3332 5.00167 17.8891C3.7024 17.3327 2.6672 16.2975 2.11082 14.9982C1.66675 13.9613 1.66675 12.6408 1.66675 9.99984ZM10.0001 5.58827C7.56371 5.58827 5.58834 7.56364 5.58834 10C5.58834 12.4364 7.56371 14.4118 10.0001 14.4118C12.4365 14.4118 14.4119 12.4364 14.4119 10C14.4119 7.56364 12.4365 5.58827 10.0001 5.58827ZM10.0001 12.7574C8.48025 12.7574 7.24275 11.5199 7.24275 10C7.24275 8.47908 8.48025 7.24268 10.0001 7.24268C11.52 7.24268 12.7575 8.47908 12.7575 10C12.7575 11.5199 11.52 12.7574 10.0001 12.7574ZM15.3306 5.257C15.3306 5.58167 15.0674 5.84487 14.7427 5.84487C14.418 5.84487 14.1548 5.58167 14.1548 5.257C14.1548 4.93233 14.418 4.66913 14.7427 4.66913C15.0674 4.66913 15.3306 4.93233 15.3306 5.257Z" fill="#086CF9"/>
</svg>
