<svg width="72" height="72" fill="none" xmlns="http://www.w3.org/2000/svg"><path d="M66.234 36.958C69.461 36.672 72 33.956 72 30.656V10.97a6.335 6.335 0 0 0-6.328-6.328H44.719a6.335 6.335 0 0 0-6.328 6.328v8.297H12.094a6.335 6.335 0 0 0-6.328 6.328v25.312c0 .74.128 1.45.362 2.11H3.797A3.801 3.801 0 0 0 0 56.813c0 5.815 4.731 10.546 10.547 10.546h50.906C67.27 67.36 72 62.628 72 56.813a3.801 3.801 0 0 0-3.797-3.797h-2.331a6.3 6.3 0 0 0 .362-2.11V36.958ZM42.61 10.968c0-1.162.947-2.109 2.11-2.109h20.953c1.163 0 2.11.947 2.11 2.11v19.687c0 1.163-.947 2.11-2.11 2.11H46.125c-.395 0-.783.11-1.118.32l-4.253 2.659 1.767-5.889c.058-.197.088-.4.088-.606V10.969Zm18.844 52.173H10.547a6.337 6.337 0 0 1-6.314-5.907h63.534a6.336 6.336 0 0 1-6.314 5.907ZM20.11 37.125a2.393 2.393 0 0 1 2.391-2.39 2.393 2.393 0 0 1 2.39 2.39 2.393 2.393 0 0 1-2.39 2.39 2.393 2.393 0 0 1-2.39-2.39Zm-1.125 9c0-1.273 1.643-2.39 3.516-2.39 1.004 0 1.972.313 2.655.859.322.257.86.798.86 1.531v6.89h-7.03v-6.89Zm11.25 6.89v-6.89c0-1.824-.89-3.583-2.444-4.825l-.106-.082a6.576 6.576 0 0 0 1.425-4.093 6.617 6.617 0 0 0-6.609-6.61 6.617 6.617 0 0 0-6.61 6.61c0 1.547.536 2.97 1.43 4.097-1.568 1.21-2.554 2.96-2.554 4.903v6.89h-2.672a2.112 2.112 0 0 1-2.11-2.109V25.594c0-1.163.947-2.11 2.11-2.11H38.39v5.456l-1.678 5.592a4.186 4.186 0 0 0 1.482 4.566c.759.58 1.655.872 2.556.872.77 0 1.545-.215 2.239-.648l3.74-2.338h15.286v13.922c0 1.163-.947 2.11-2.11 2.11H30.234Z" fill="#086CF9"/><path d="M57.375 23.766h-4.5a2.11 2.11 0 0 0 0 4.218h4.5a2.11 2.11 0 0 0 0-4.218ZM49.5 17.86h11.25a2.11 2.11 0 0 0 0-4.22H49.5a2.11 2.11 0 0 0 0 4.22Z" fill="#086CF9"/></svg>