<svg width="16" height="16" viewBox="0 0 16 16" fill="none" xmlns="http://www.w3.org/2000/svg">
<path d="M15.977 6.16433C15.9219 5.99461 15.7752 5.87095 15.5986 5.8453L10.6386 5.12452L8.42035 0.629933C8.34138 0.469933 8.17845 0.368652 8.00001 0.368652C7.8216 0.368652 7.65863 0.469965 7.57967 0.629933L5.3613 5.12455L0.401339 5.8453C0.224777 5.87095 0.0780901 5.99464 0.0229653 6.16433C-0.0321909 6.33402 0.013809 6.5203 0.141559 6.64483L3.73055 10.1434L2.88343 15.0835C2.85327 15.2593 2.92558 15.4371 3.06993 15.5419C3.21424 15.6468 3.40555 15.6606 3.56358 15.5776L7.99998 13.2453L12.4362 15.5777C12.5048 15.6137 12.5797 15.6315 12.6543 15.6315C12.7515 15.6315 12.8483 15.6013 12.9299 15.542C13.0742 15.4371 13.1466 15.2594 13.1164 15.0835L12.269 10.1434L15.8584 6.64486C15.9862 6.5203 16.0322 6.33402 15.977 6.16433ZM11.4382 9.64407C11.3277 9.75176 11.2773 9.90695 11.3034 10.059L12.0318 14.3058L8.21816 12.3008C8.0816 12.229 7.91845 12.229 7.78188 12.3008L3.96799 14.3058L4.69624 10.059C4.7223 9.90692 4.67189 9.75179 4.56145 9.6441L1.47612 6.63648L5.74001 6.01683C5.8927 5.99464 6.02464 5.89877 6.09295 5.76042L7.99998 1.89649L9.90694 5.76039C9.97525 5.89874 10.1072 5.99464 10.2599 6.01683L14.5238 6.63645L11.4382 9.64407Z" fill="#086CF9"/>
</svg>
