<svg width="72" height="72" fill="none" xmlns="http://www.w3.org/2000/svg"><g clip-path="url(#a)" fill="#086CF9"><path d="m21.465 25.305 4.48 4.48L36 19.882v4.108h4.235V12.705H28.952v4.235h3.998l-6.982 6.878-4.503-4.503L3.449 37.331l2.995 2.994 15.02-15.02ZM12.706 72h8.47V46.588h-8.47V72ZM25.412 72h8.47V42.354h-8.47v29.648ZM72 21.177l-7.94-10.589L72 0H44.47v38.118h-6.352V72h16.941V38.118h-6.353V21.176H72ZM8.47 50.823H0V72h8.47V50.823Z"/></g><defs><clipPath id="a"><path fill="#fff" d="M0 0h72v72H0z"/></clipPath></defs></svg>