<svg width="20" height="20" viewBox="0 0 20 20" fill="none" xmlns="http://www.w3.org/2000/svg">
<path d="M18.75 4.81036C18.1059 5.08364 17.4148 5.26897 16.6887 5.35172C17.4301 4.92659 17.9976 4.25227 18.2666 3.45124C17.5711 3.84494 16.8035 4.13082 15.9855 4.28579C15.3305 3.6167 14.3988 3.19995 13.3653 3.19995C11.3827 3.19995 9.77523 4.73917 9.77523 6.6365C9.77523 6.90559 9.80694 7.16841 9.86819 7.41973C6.88501 7.27626 4.23973 5.90772 2.46928 3.82818C2.1598 4.33499 1.98374 4.92552 1.98374 5.55589C1.98374 6.74853 2.618 7.80086 3.58033 8.41652C2.992 8.39769 2.43866 8.24272 1.95423 7.98512V8.02806C1.95423 9.69292 3.19213 11.0824 4.83353 11.3986C4.5328 11.4761 4.21568 11.5191 3.88761 11.5191C3.6558 11.5191 3.43161 11.4971 3.2118 11.4552C3.66889 12.8216 4.99429 13.8153 6.56463 13.8426C5.33657 14.764 3.7881 15.3116 2.10624 15.3116C1.81646 15.3116 1.53103 15.2949 1.25 15.2645C2.83893 16.2414 4.7253 16.8111 6.75273 16.8111C13.3566 16.8111 16.9665 11.5735 16.9665 7.03126L16.9544 6.58625C17.6597 6.10456 18.2699 5.49935 18.75 4.81036Z" fill="#086CF9"/>
</svg>
