<svg width="16" height="16" viewBox="0 0 16 16" fill="none" xmlns="http://www.w3.org/2000/svg">
<g clip-path="url(#clip0_28_397)">
<path d="M7.99993 8.02051C3.78348 8.02051 0.353027 11.451 0.353027 15.6674C0.353027 15.8509 0.501986 15.9999 0.685512 15.9999C0.869038 15.9999 1.018 15.8509 1.018 15.6674C1.018 11.8174 4.14991 8.68545 7.99996 8.68545C11.85 8.68545 14.9819 11.8174 14.9819 15.6674C14.9819 15.8509 15.1309 15.9999 15.3144 15.9999C15.4979 15.9999 15.6469 15.8509 15.6469 15.6674C15.6469 11.4503 12.2164 8.02051 7.99993 8.02051Z" fill="#086CF9"/>
<path d="M7.99998 0C5.98385 0 4.34277 1.64042 4.34277 3.65721C4.34277 5.674 5.98388 7.31441 7.99998 7.31441C10.0161 7.31441 11.6572 5.674 11.6572 3.65721C11.6572 1.64042 10.0161 0 7.99998 0ZM7.99998 6.64947C6.35024 6.64947 5.00771 5.30694 5.00771 3.65721C5.00771 2.00747 6.35024 0.664938 7.99998 0.664938C9.64972 0.664938 10.9922 2.00747 10.9922 3.65721C10.9922 5.30694 9.64972 6.64947 7.99998 6.64947Z" fill="#086CF9"/>
</g>
<defs>
<clipPath id="clip0_28_397">
<rect width="16" height="16" fill="white"/>
</clipPath>
</defs>
</svg>
