<svg width="16" height="16" viewBox="0 0 16 16" fill="none" xmlns="http://www.w3.org/2000/svg">
<path d="M15.9407 7.81091C15.8147 7.62756 12.7867 3.3335 7.99996 3.3335C3.89255 3.3335 0.232496 7.60291 0.0784934 7.78491C-0.0261645 7.90891 -0.0261645 8.09091 0.0784934 8.21557C0.232496 8.39757 3.89255 12.667 7.99996 12.667C12.1074 12.667 15.7674 8.39757 15.9214 8.21557C16.0181 8.10091 16.0267 7.93491 15.9407 7.81091ZM7.99996 12.0003C4.70725 12.0003 1.57652 8.86027 0.781192 8.00026C1.5752 7.13959 4.7026 4.00019 7.99996 4.00019C11.8527 4.00019 14.5721 7.13559 15.2361 7.98226C14.4694 8.81492 11.3207 12.0003 7.99996 12.0003Z" fill="#086CF9"/>
<path d="M7.99996 5.3335C6.52927 5.3335 5.33325 6.52952 5.33325 8.0002C5.33325 9.47088 6.52927 10.6669 7.99996 10.6669C9.47064 10.6669 10.6667 9.47088 10.6667 8.0002C10.6667 6.52952 9.47064 5.3335 7.99996 5.3335ZM7.99996 10.0003C6.89728 10.0003 5.99992 9.10291 5.99992 8.00023C5.99992 6.89756 6.89728 6.0002 7.99996 6.0002C9.10263 6.0002 9.99999 6.89756 9.99999 8.00023C9.99999 9.10291 9.10263 10.0003 7.99996 10.0003Z" fill="#086CF9"/>
</svg>
